<?xml version="1.0" encoding="UTF-8"?>
<svg xmlns="http://www.w3.org/2000/svg" viewBox="0 0 1200 180" width="1200" height="180" preserveAspectRatio="xMidYMid slice" role="img" aria-label="night sky">
<defs>
<linearGradient id="sky" x1="0" y1="0" x2="0" y2="1">
<stop offset="0" stop-color="#0d1226"/>
<stop offset="1" stop-color="#04060d"/>
</linearGradient>
<radialGradient id="glow" cx="0.5" cy="0.5" r="0.5">
<stop offset="0" stop-color="#aab4ff" stop-opacity="0.30"/>
<stop offset="1" stop-color="#aab4ff" stop-opacity="0"/>
</radialGradient>
<radialGradient id="nebula" cx="0.5" cy="0.5" r="0.5">
<stop offset="0" stop-color="#7b6cff" stop-opacity="0.14"/>
<stop offset="1" stop-color="#7b6cff" stop-opacity="0"/>
</radialGradient>
<mask id="crescent">
<circle cx="950" cy="60" r="26" fill="white"/>
<circle cx="961" cy="52" r="22" fill="black"/>
</mask>
</defs>
<rect width="1200" height="180" fill="url(#sky)"/>
<circle cx="260" cy="150" r="190" fill="url(#nebula)"/>
<g>
<path d="M 268 46 C 220 28, 178 48, 182 78 C 186 104, 252 100, 262 126 C 270 148, 226 160, 196 146" fill="none" stroke="#9db1ff" stroke-width="1" stroke-linecap="round" stroke-dasharray="460" stroke-dashoffset="0" opacity="0.30">
<animate attributeName="stroke-dashoffset" values="460;460;0" keyTimes="0;0.2;1" dur="3s" begin="0s" fill="freeze"/>
</path>
<circle cx="268" cy="46" r="6" fill="#9db1ff" opacity="0.15"/>
<circle cx="268" cy="46" r="2.4" fill="#dbe6ff" opacity="0.95">
<animate attributeName="opacity" values="0.95;0.45;0.95" dur="3.2s" repeatCount="indefinite"/>
</circle>
<circle cx="222" cy="98" r="6" fill="#9db1ff" opacity="0.15"/>
<circle cx="222" cy="98" r="2.4" fill="#dbe6ff" opacity="0.95">
<animate attributeName="opacity" values="0.45;0.95;0.45" dur="3.2s" repeatCount="indefinite"/>
</circle>
<circle cx="196" cy="146" r="6" fill="#9db1ff" opacity="0.15"/>
<circle cx="196" cy="146" r="2.4" fill="#dbe6ff" opacity="0.95">
<animate attributeName="opacity" values="0.95;0.45;0.95" dur="4.1s" repeatCount="indefinite"/>
</circle>
</g>
<circle cx="950" cy="60" r="72" fill="url(#glow)"/>
<circle cx="950" cy="60" r="26" fill="#e6e9f5" mask="url(#crescent)"/>
<circle cx="60" cy="30" r="1.2" fill="#e8ecff" opacity="0.5"/>
<circle cx="140" cy="90" r="1.0" fill="#e8ecff" opacity="0.4"/>
<circle cx="220" cy="40" r="1.5" fill="#e8ecff" opacity="0.7">
<animate attributeName="opacity" values="0.7;0.15;0.7" dur="4s" repeatCount="indefinite"/>
</circle>
<circle cx="310" cy="120" r="1.1" fill="#e8ecff" opacity="0.45"/>
<circle cx="390" cy="25" r="1.3" fill="#e8ecff" opacity="0.6"/>
<circle cx="470" cy="80" r="1.0" fill="#e8ecff" opacity="0.35">
<animate attributeName="opacity" values="0.35;0.9;0.35" dur="5s" repeatCount="indefinite"/>
</circle>
<circle cx="540" cy="140" r="1.4" fill="#e8ecff" opacity="0.55">
<animate attributeName="opacity" values="0.55;0.2;0.55" dur="4.5s" repeatCount="indefinite"/>
</circle>
<circle cx="620" cy="35" r="1.1" fill="#e8ecff" opacity="0.5"/>
<circle cx="700" cy="100" r="1.0" fill="#e8ecff" opacity="0.4"/>
<circle cx="760" cy="155" r="1.3" fill="#e8ecff" opacity="0.5">
<animate attributeName="opacity" values="0.5;0.1;0.5" dur="3.5s" repeatCount="indefinite"/>
</circle>
<circle cx="830" cy="50" r="1.0" fill="#e8ecff" opacity="0.45"/>
<circle cx="880" cy="120" r="1.2" fill="#e8ecff" opacity="0.4"/>
<circle cx="1030" cy="130" r="1.1" fill="#e8ecff" opacity="0.5"/>
<circle cx="1090" cy="40" r="1.4" fill="#e8ecff" opacity="0.6">
<animate attributeName="opacity" values="0.6;0.2;0.6" dur="6s" repeatCount="indefinite"/>
</circle>
<circle cx="1150" cy="90" r="1.0" fill="#e8ecff" opacity="0.4"/>
<circle cx="1180" cy="150" r="1.2" fill="#e8ecff" opacity="0.5"/>
<circle cx="90" cy="150" r="1.0" fill="#e8ecff" opacity="0.35"/>
<circle cx="180" cy="160" r="0.9" fill="#e8ecff" opacity="0.3"/>
<circle cx="280" cy="70" r="0.9" fill="#e8ecff" opacity="0.35"/>
<circle cx="430" cy="155" r="1.0" fill="#e8ecff" opacity="0.4"/>
<circle cx="590" cy="70" r="0.9" fill="#e8ecff" opacity="0.3"/>
<circle cx="730" cy="20" r="1.2" fill="#e8ecff" opacity="0.55"/>
<circle cx="1120" cy="160" r="0.9" fill="#e8ecff" opacity="0.35"/>
<path d="M 0 100 L 46 76" stroke="#c9d4ff" stroke-width="1.6" stroke-linecap="round" opacity="0">
<animate attributeName="opacity" values="0;0;0.8;0;0" keyTimes="0;0.62;0.72;0.82;1" dur="11s" repeatCount="indefinite"/>
<animateTransform attributeName="transform" type="translate" values="0 0;0 0;1240 -60;1240 -60" keyTimes="0;0.62;0.82;1" dur="11s" repeatCount="indefinite"/>
</path>
</svg>
